<svg width="40" height="40" viewBox="0 0 40 40" fill="none" xmlns="http://www.w3.org/2000/svg">
<path fill-rule="evenodd" clip-rule="evenodd" d="M28.3404 0.52679C24.8123 1.11422 21.9103 3.47183 20.6682 6.75983C20.4816 7.25384 20.2243 8.21878 20.1332 8.76661L20.0854 9.05329H10.2649H0.444336L0.485194 9.3782C0.507647 9.55686 1.07004 16.4201 1.73492 24.6298L2.9438 39.5564H15.7567C25.955 39.5564 28.5699 39.5369 28.5716 39.4609C28.5727 39.4083 28.9277 35.0191 29.3605 29.707C29.9811 22.0908 30.1703 20.0342 30.2559 19.9801C30.3154 19.9423 30.5017 19.9109 30.6697 19.9102C31.1026 19.9085 32.0945 19.7099 32.7904 19.4855C35.5418 18.5986 37.8085 16.4715 38.8709 13.7799C40.3254 10.0947 39.4198 5.94916 36.5555 3.1811C35.1689 1.8411 33.5713 0.999856 31.6625 0.604844C30.8187 0.430158 29.1553 0.391093 28.3404 0.52679ZM28.6459 5.09637V7.40827L27.0421 5.80421C26.16 4.92199 25.4383 4.17799 25.4383 4.15093C25.4383 4.05414 26.5123 3.45425 27.082 3.23285C27.401 3.10885 27.8748 2.96069 28.1348 2.90366C28.3949 2.84656 28.6163 2.79641 28.6268 2.79212C28.6373 2.78792 28.6459 3.8248 28.6459 5.09637ZM31.6625 2.96414C31.9146 3.02659 32.3098 3.14876 32.5408 3.23553C33.0051 3.41006 34.1446 4.05552 34.1446 4.14397C34.1446 4.17486 33.4229 4.92199 32.5408 5.80421L30.937 7.40827V5.09125C30.937 2.92094 30.9455 2.77661 31.0707 2.81238C31.1441 2.83341 31.4105 2.90168 31.6625 2.96414ZM25.4001 7.44787L27.0025 9.05329H24.7028H22.4031L22.5371 8.49904C22.6971 7.83661 22.8315 7.46277 23.109 6.9073C23.3549 6.41496 23.7042 5.84274 23.7589 5.84259C23.7802 5.84251 24.5188 6.56488 25.4001 7.44787ZM36.2442 6.43492C36.6249 7.08512 36.8464 7.62546 37.0199 8.32703C37.0823 8.57931 37.1505 8.84589 37.1715 8.91951C37.2073 9.04481 37.0631 9.05329 34.895 9.05329H32.5804L34.1828 7.44787C35.0641 6.56488 35.8105 5.84244 35.8413 5.84244C35.8722 5.84244 36.0535 6.10902 36.2442 6.43492ZM28.54 11.6334C28.5164 11.7912 28.3535 13.7434 28.1782 15.9719C28.0029 18.2004 27.8365 20.05 27.8086 20.0821C27.7807 20.1143 27.4851 20.0895 27.1518 20.0269C26.0209 19.8149 24.7166 19.6733 23.5291 19.6334C22.878 19.6116 22.268 19.5779 22.1735 19.5588L22.0016 19.5239V17.2701V15.0163H15.8156H9.62959V17.8067V20.5971H8.89811C8.49579 20.5971 7.74835 20.5599 7.23705 20.5146C6.28578 20.4301 3.7699 20.0318 3.69139 19.9533C3.6474 19.9092 2.9926 12.1655 2.98786 11.6334L2.98534 11.3468H15.7842H28.583L28.54 11.6334ZM37.0736 11.8582C36.9346 12.5226 36.5192 13.5366 36.1531 14.1054C35.9935 14.3533 35.8454 14.5565 35.824 14.5569C35.8027 14.5573 35.0641 13.8352 34.1828 12.9522L32.5804 11.3468H34.8806H37.1808L37.0736 11.8582ZM34.1444 16.2389C34.1444 16.2602 33.9911 16.3746 33.8039 16.493C32.9128 17.0566 31.6808 17.507 30.7977 17.5922L30.3148 17.6387L30.3559 17.3787C30.3786 17.2357 30.4734 16.1449 30.5668 14.9548L30.7364 12.7908L32.4404 14.4954C33.3777 15.433 34.1445 16.2175 34.1444 16.2389ZM19.7105 18.45V19.5902L19.1186 19.6405C17.9992 19.7355 17.2242 19.8401 15.4338 20.1377C14.4467 20.3017 13.4157 20.456 13.1426 20.4807C12.8696 20.5053 12.483 20.5427 12.2835 20.5639L11.9207 20.6024V18.956V17.3098H15.8156H19.7105V18.45ZM24.4073 21.9783C25.2764 22.0485 27.5578 22.3874 27.627 22.4567C27.6519 22.4817 26.9359 31.5068 26.848 32.2747L26.802 32.676H15.7337H4.6655L4.66198 32.4658C4.66 32.3502 4.47549 30.0366 4.25187 27.3246C4.02834 24.6126 3.85375 22.3836 3.86399 22.3714C3.87422 22.3592 4.2841 22.4189 4.77486 22.5042C6.0013 22.7174 7.80548 22.8906 8.80021 22.8906H9.62959V25.1458V27.401H15.8156H22.0016L22.0016 24.6298V21.8585L22.708 21.8784C23.0966 21.8892 23.8613 21.9343 24.4073 21.9783ZM19.7105 23.5021V25.1076H15.8156H11.9207V24.0062V22.9049L12.2835 22.8627C12.483 22.8394 12.9212 22.799 13.2572 22.7727C13.5932 22.7465 14.787 22.5724 15.91 22.3858C17.7082 22.087 18.7993 21.9415 19.5005 21.907L19.7105 21.8967V23.5021ZM26.6335 35.1033C26.6131 35.1768 26.5752 35.5983 26.5491 36.0398C26.523 36.4813 26.4831 36.9371 26.4604 37.0527L26.419 37.263H15.7438H5.06843L5.02238 36.7851C4.9971 36.5224 4.95326 36.0064 4.925 35.6384L4.87361 34.9695H15.7721C26.1147 34.9695 26.6687 34.9763 26.6335 35.1033Z" fill="#5F8E3E"/>
</svg>
